<svg xmlns="http://www.w3.org/2000/svg" xmlns:xlink="http://www.w3.org/1999/xlink" viewBox="0 0 492.71 497.19"><defs><style>.cls-1{fill:url(#linear-gradient);}.cls-2{fill:#fff;}</style><linearGradient id="linear-gradient" y1="248.6" x2="492.71" y2="248.6" gradientUnits="userSpaceOnUse"><stop offset="0" stop-color="#ffd318"/><stop offset="0.51" stop-color="#f3cb35"/><stop offset="1" stop-color="#fdc541"/></linearGradient></defs><g id="Layer_2" data-name="Layer 2"><g id="Layer_1-2" data-name="Layer 1"><path class="cls-1" d="M47,266.1A96.91,96.91,0,0,0,32.16,414.85q17,17.1,34,34.22a162.7,162.7,0,0,0,256.56-33.46l158.07-274.8A89.73,89.73,0,1,0,325.18,51.33l-20,34.7a5,5,0,0,1-7.91,1L254.64,44A148.92,148.92,0,0,0,43.19,253.79l4.57,4.61A5,5,0,0,1,47,266.1Z"/><path class="cls-2" d="M309,176.26l-93-93.79a94.35,94.35,0,1,0-134,132.89l121.71,122.7a28.69,28.69,0,0,1-40.73,40.41l-53.85-54.29A29.43,29.43,0,0,0,59,341.08,42.32,42.32,0,0,0,70.9,376.42l33.95,34.23a108.18,108.18,0,0,0,90.77,31.07A106.4,106.4,0,0,0,224,434a85.4,85.4,0,0,0,27.17-138.72L127.28,170.37a30.47,30.47,0,0,1,43.27-42.91q78.36,79,156.73,158a5,5,0,0,0,7.91-1Q384.32,199,433.45,113.6a35.17,35.17,0,1,0-61-35.07l-55.62,96.7A5,5,0,0,1,309,176.26Z"/></g></g></svg>